<?xml version="1.0" standalone="no"?>
<!DOCTYPE svg PUBLIC "-//W3C//DTD SVG 20010904//EN"
 "http://www.w3.org/TR/2001/REC-SVG-20010904/DTD/svg10.dtd">
<svg version="1.0" xmlns="http://www.w3.org/2000/svg"
 width="500.000000pt" height="500.000000pt" viewBox="0 0 500.000000 500.000000"
 preserveAspectRatio="xMidYMid meet">
<metadata>
Created by potrace 1.14, written by Peter Selinger 2001-2017
</metadata>
<g transform="translate(0.000000,500.000000) scale(0.100000,-0.100000)"
fill="#000000" stroke="none">
<path d="M1080 2500 l0 -710 -210 0 -210 0 0 115 0 115 -140 0 -140 0 0 -115
0 -115 70 0 70 0 0 -120 0 -120 350 0 349 0 3 118 3 117 68 3 67 3 0 709 0
710 -140 0 -140 0 0 -710z"/>
<path d="M2640 3095 l0 -115 70 0 70 0 0 -120 0 -120 70 0 70 0 0 -120 0 -120
70 0 69 0 3 -117 3 -118 68 -3 67 -3 0 -114 0 -115 70 0 70 0 0 115 0 115 -70
0 -70 0 0 120 0 120 -70 0 -70 0 0 120 0 120 -70 0 -70 0 0 120 0 120 -70 0
-70 0 0 115 0 115 -70 0 -70 0 0 -115z"/>
<path d="M3910 3095 l0 -115 70 0 70 0 0 -120 0 -120 70 0 70 0 0 -120 0 -120
75 0 76 0 -3 -117 -3 -118 -72 -3 -73 -3 0 -119 0 -120 -70 0 -70 0 0 -115 0
-115 -70 0 -70 0 0 -120 0 -120 140 0 140 0 0 120 0 120 70 0 69 0 3 118 3
117 68 3 67 3 0 114 0 114 73 3 72 3 3 117 3 117 -73 3 -73 3 -3 118 -3 117
-69 0 -70 0 0 120 0 120 -70 0 -70 0 0 115 0 115 -140 0 -140 0 0 -115z"/>
<path d="M1790 2740 l0 -240 140 0 140 0 0 240 0 240 -140 0 -140 0 0 -240z"/>
<path d="M1790 2025 l0 -235 140 0 140 0 0 235 0 235 -140 0 -140 0 0 -235z"/>
<path d="M3350 1905 l0 -115 70 0 70 0 0 -120 0 -120 70 0 71 0 -3 118 -3 117
-67 3 -68 3 0 114 0 115 -70 0 -70 0 0 -115z"/>
</g>
</svg>
